<?xml version="1.0" encoding="UTF-8"?><svg id="Layer_1" xmlns="http://www.w3.org/2000/svg" viewBox="0 0 2500 2500"><defs><style>.cls-1{fill:#60c8a8;}</style></defs><path d="M2448.52,683.57c-.59-9.47-4.9-18.31-12.01-24.6l-55.45-49c7.39-8.8,11.09-19.88,10.38-31.4-.74-11.9-6.07-22.8-14.99-30.7l-378.13-334.16c-18.45-16.27-46.71-14.53-63,3.9L905.19,1383.27l-445.42-393.63c-8.95-7.9-20.47-11.85-32.32-11.11-11.91,.74-22.81,6.07-30.68,15.01L62.6,1371.66c-7.78,8.81-11.83,20.58-11.1,32.3,.73,11.9,6.06,22.8,14.99,30.71l63.15,55.81c-2.53,5.38-3.71,11.35-3.33,17.39,.59,9.47,4.9,18.31,12.01,24.6l855.51,756.02c6.58,5.82,15.01,8.96,23.67,8.96,1.98,0,3.97-.17,5.95-.5,2.65-.45,5.24-1.19,7.68-2.21,6.49-1.85,12.42-5.53,17-10.71L2439.62,709.44c6.29-7.1,9.48-16.41,8.9-25.87ZM159.06,1397.33l275.03-311.23,445.43,393.63c18.44,16.28,46.7,14.53,63-3.9L1972.64,310.17l311.23,275.03L949.16,2095.55,159.06,1397.33Z"/><path class="cls-1" d="M942.52,1475.71c-16.3,18.43-44.56,20.18-63,3.9l-445.43-393.63-275.03,311.23,790.09,698.22L2283.87,585.08l-311.23-275.03L942.52,1475.71Z"/></svg>