<?xml version="1.0" encoding="UTF-8"?><svg id="Layer_1" xmlns="http://www.w3.org/2000/svg" viewBox="0 0 2500 2500"><path d="M2480.93,668.25c-.6-9.73-5.03-18.81-12.34-25.26l-56.95-50.33c7.59-9.03,11.39-20.42,10.66-32.25-.76-12.23-6.23-23.42-15.4-31.53l-388.36-343.2c-18.95-16.71-47.98-14.93-64.7,4.01L895.86,1386.88l-457.47-404.28c-9.19-8.12-21.02-12.17-33.19-11.41-12.23,.76-23.42,6.23-31.51,15.41L30.49,1374.95c-7.99,9.05-12.15,21.14-11.4,33.18,.75,12.22,6.22,23.42,15.4,31.54l64.86,57.32c-2.59,5.52-3.81,11.65-3.42,17.86,.6,9.73,5.03,18.81,12.34,25.26l878.64,776.46c6.76,5.97,15.42,9.2,24.31,9.2,2.04,0,4.07-.17,6.11-.51,2.73-.47,5.38-1.23,7.89-2.27,6.67-1.9,12.75-5.68,17.46-11L2471.79,694.82c6.46-7.29,9.74-16.85,9.14-26.57ZM129.56,1401.32l282.47-319.65,457.47,404.28c18.94,16.72,47.96,14.92,64.7-4.01L1992.18,284.76l319.64,282.47L941.02,2118.41,129.56,1401.32Z"/></svg>