<?xml version="1.0" encoding="UTF-8"?><svg id="Layer_1" xmlns="http://www.w3.org/2000/svg" viewBox="0 0 2500 2500"><defs><style>.cls-1{fill:#f7ed8d;}</style></defs><g><g><path d="M1271.25,2411c-153.9,0-303.16-30.12-443.61-89.53-67.52-28.56-132.64-63.91-193.57-105.07-60.37-40.79-117.14-87.63-168.74-139.23-51.6-51.6-98.44-108.37-139.23-168.74-41.16-60.93-76.51-126.05-105.07-193.57-59.41-140.46-89.53-289.71-89.53-443.61s30.12-303.16,89.53-443.61c28.56-67.52,63.91-132.64,105.07-193.57,40.79-60.37,87.63-117.14,139.23-168.74s108.37-98.44,168.74-139.23c60.93-41.16,126.05-76.51,193.57-105.07,140.46-59.41,289.71-89.53,443.61-89.53s303.16,30.12,443.61,89.53c67.52,28.56,132.64,63.91,193.57,105.07,60.37,40.79,117.14,87.63,168.74,139.23,51.6,51.6,98.44,108.37,139.23,168.74,41.16,60.93,76.51,126.05,105.07,193.57,59.41,140.46,89.53,289.71,89.53,443.61s-30.12,303.16-89.53,443.61c-28.56,67.52-63.91,132.64-105.07,193.57-40.79,60.37-87.63,117.14-139.23,168.74-51.6,51.6-108.37,98.44-168.74,139.23-60.93,41.16-126.05,76.51-193.57,105.07-140.46,59.41-289.71,89.53-443.61,89.53Z"/><path d="M1271.25,220.5c71.41,0,142.72,7.18,211.95,21.35,67.38,13.79,133.66,34.36,196.99,61.15,62.22,26.32,122.25,58.9,178.42,96.85,55.68,37.61,108.04,80.82,155.63,128.41,47.59,47.59,90.8,99.95,128.41,155.63,37.94,56.16,70.53,116.19,96.85,178.42,26.79,63.33,47.36,129.61,61.15,196.99,14.17,69.23,21.35,140.54,21.35,211.95s-7.18,142.72-21.35,211.95c-13.79,67.38-34.36,133.66-61.15,196.99-26.32,62.22-58.9,122.25-96.85,178.42-37.61,55.68-80.82,108.04-128.41,155.63-47.59,47.59-99.95,90.8-155.63,128.41-56.16,37.94-116.19,70.53-178.42,96.85-63.33,26.79-129.61,47.36-196.99,61.15-69.23,14.17-140.54,21.35-211.95,21.35s-142.72-7.18-211.95-21.35c-67.38-13.79-133.66-34.36-196.99-61.15-62.22-26.32-122.25-58.9-178.42-96.85-55.68-37.61-108.04-80.82-155.63-128.41-47.59-47.59-90.8-99.95-128.41-155.63-37.94-56.16-70.53-116.19-96.85-178.42-26.79-63.33-47.36-129.61-61.15-196.99-14.17-69.23-21.35-140.54-21.35-211.95s7.18-142.72,21.35-211.95c13.79-67.38,34.36-133.66,61.15-196.99,26.32-62.22,58.9-122.25,96.85-178.42,37.61-55.68,80.82-108.04,128.41-155.63,47.59-47.59,99.95-90.8,155.63-128.41,56.16-37.94,116.19-70.53,178.42-96.85,63.33-26.79,129.61-47.36,196.99-61.15,69.23-14.17,140.54-21.35,211.95-21.35m0-178C592.63,42.5,42.5,592.63,42.5,1271.25s550.13,1228.75,1228.75,1228.75,1228.75-550.13,1228.75-1228.75S1949.87,42.5,1271.25,42.5h0Z"/></g><g><path d="M1433.08,1068.87c-.82,3.02-1.47,5.58-2.2,8.12-55.03,191.01-110.15,381.99-164.99,573.05-5.45,18.98-9.42,38.4-13.71,57.69-2.3,10.33-.63,19.84,7.55,27.61,6.44,6.11,13.72,8.08,22.23,5.98,7.53-1.86,13.89-5.83,19.79-10.73,16.26-13.5,30.5-29,43.19-45.79,14.29-18.9,27.75-38.43,41.55-57.69,1.54-2.15,2.98-4.38,4.75-7.01,9.21,5.43,17.95,10.59,26.68,15.73-.32,1.25-.36,2.01-.69,2.6-26.23,45.42-55.46,88.69-91.64,126.92-24,25.36-50.51,47.58-81.68,63.78-29.37,15.27-60.5,23.39-93.73,22.46-16.46-.46-32.69-2.87-47.85-9.62-40.04-17.81-61.22-48.79-62.93-92.57-.85-21.68,3.4-42.87,9.27-63.6,14.37-50.75,29.2-101.37,43.9-152.03,25.93-89.35,52-178.66,77.78-268.06,6.43-22.3,11.69-44.9,13.15-68.22,1.25-19.99-7.85-36.18-25.88-45.43-10.97-5.63-22.79-6.96-34.87-7.02-8.54-.05-17.07,0-26.32,0,3.02-9.39,6.13-19.05,9.24-28.72,.92-2.86,3.36-3.19,5.83-3.58,21.7-3.47,43.4-6.95,65.09-10.46,37.6-6.1,75.2-12.22,112.8-18.34,30.85-5.02,61.59-10.94,92.59-14.72,16.58-2.02,33.62-.36,51.12-.36Z"/><path d="M1503.21,811.82c.74,66.09-55.2,120.63-121.21,120.19-64.89-.43-119.59-56.35-118.91-121.96,.67-64,54.53-119.61,120.67-119.22,64.02,.37,120.47,53.31,119.45,120.98Z"/></g></g><g><g><path class="cls-1" d="M1185,2281c-148,0-291.52-28.97-426.59-86.09-64.92-27.46-127.55-61.45-186.14-101.03-58.05-39.22-112.65-84.27-162.27-133.88-49.62-49.62-94.66-104.21-133.88-162.27-39.58-58.59-73.57-121.21-101.03-186.14-57.13-135.06-86.09-278.59-86.09-426.58s28.97-291.52,86.09-426.59c27.46-64.92,61.45-127.55,101.03-186.14,39.22-58.05,84.27-112.65,133.88-162.27,49.62-49.62,104.21-94.66,162.27-133.88,58.59-39.58,121.21-73.57,186.14-101.03,135.06-57.13,278.59-86.09,426.59-86.09s291.52,28.97,426.58,86.09c64.92,27.46,127.55,61.45,186.14,101.03,58.05,39.22,112.65,84.27,162.27,133.88,49.62,49.62,94.66,104.21,133.88,162.27,39.58,58.59,73.57,121.21,101.03,186.14,57.13,135.06,86.09,278.59,86.09,426.59s-28.97,291.52-86.09,426.58c-27.46,64.92-61.45,127.55-101.03,186.14-39.22,58.05-84.27,112.65-133.88,162.27-49.62,49.62-104.21,94.66-162.27,133.88-58.59,39.58-121.21,73.57-186.14,101.03-135.06,57.13-278.59,86.09-426.58,86.09Z"/><path d="M1185,178c68.44,0,136.78,6.88,203.13,20.46,64.57,13.21,128.09,32.93,188.78,58.6,59.63,25.22,117.16,56.45,170.98,92.81,53.36,36.05,103.54,77.46,149.16,123.07,45.61,45.61,87.02,95.8,123.07,149.16,36.36,53.83,67.59,111.35,92.81,170.98,25.67,60.69,45.39,124.21,58.6,188.78,13.58,66.35,20.46,134.69,20.46,203.13s-6.88,136.78-20.46,203.13c-13.21,64.57-32.93,128.09-58.6,188.78-25.22,59.63-56.45,117.16-92.81,170.98-36.05,53.36-77.46,103.54-123.07,149.16-45.61,45.61-95.8,87.02-149.16,123.07-53.83,36.36-111.35,67.59-170.98,92.81-60.69,25.67-124.21,45.39-188.78,58.6-66.35,13.58-134.69,20.46-203.13,20.46s-136.78-6.88-203.13-20.46c-64.57-13.21-128.09-32.93-188.78-58.6-59.63-25.22-117.16-56.45-170.98-92.81-53.36-36.05-103.54-77.46-149.16-123.07-45.61-45.61-87.02-95.8-123.07-149.16-36.36-53.83-67.59-111.35-92.81-170.98-25.67-60.69-45.39-124.21-58.6-188.78-13.58-66.35-20.46-134.69-20.46-203.13s6.88-136.78,20.46-203.13c13.21-64.57,32.93-128.09,58.6-188.78,25.22-59.63,56.45-117.16,92.81-170.98,36.05-53.36,77.46-103.54,123.07-149.16,45.61-45.61,95.8-87.02,149.16-123.07,53.83-36.36,111.35-67.59,170.98-92.81,60.69-25.67,124.21-45.39,188.78-58.6,66.35-13.58,134.69-20.46,203.13-20.46m0-178C530.54,0,0,530.54,0,1185s530.54,1185,1185,1185,1185-530.54,1185-1185S1839.46,0,1185,0h0Z"/></g><g><path d="M1341.06,989.82c-.79,2.91-1.42,5.38-2.13,7.83-53.07,184.2-106.23,368.39-159.12,552.64-5.25,18.3-9.09,37.03-13.23,55.64-2.21,9.96-.61,19.13,7.29,26.63,6.21,5.9,13.23,7.79,21.44,5.77,7.26-1.79,13.4-5.62,19.09-10.35,15.69-13.02,29.41-27.97,41.65-44.16,13.78-18.23,26.76-37.06,40.07-55.64,1.49-2.08,2.87-4.23,4.59-6.76,8.88,5.24,17.31,10.21,25.73,15.17-.31,1.21-.34,1.94-.67,2.5-25.3,43.8-53.48,85.54-88.37,122.4-23.15,24.46-48.71,45.88-78.77,61.51-28.33,14.73-58.35,22.56-90.4,21.66-15.88-.44-31.52-2.77-46.15-9.27-38.62-17.17-59.04-47.05-60.69-89.27-.82-20.91,3.28-41.34,8.94-61.33,13.86-48.94,28.16-97.76,42.33-146.61,25-86.17,50.15-172.3,75.01-258.52,6.2-21.51,11.27-43.3,12.68-65.79,1.21-19.27-7.57-34.89-24.96-43.81-10.58-5.42-21.98-6.71-33.62-6.77-8.23-.04-16.46,0-25.38,0,2.92-9.06,5.92-18.38,8.91-27.69,.89-2.76,3.24-3.07,5.62-3.45,20.93-3.35,41.85-6.7,62.77-10.09,36.26-5.88,72.52-11.79,108.78-17.69,29.75-4.84,59.4-10.55,89.29-14.19,15.99-1.95,32.42-.35,49.3-.35Z"/><path d="M1408.7,741.93c.71,63.74-53.23,116.34-116.89,115.91-62.58-.42-115.33-54.35-114.67-117.61,.64-61.72,52.58-115.35,116.37-114.98,61.74,.36,116.18,51.41,115.19,116.68Z"/></g></g></svg>