<?xml version="1.0" encoding="UTF-8"?><svg id="Layer_1" xmlns="http://www.w3.org/2000/svg" viewBox="0 0 2500 2500"><defs><style>.cls-1{fill:#a78eba;}.cls-2{fill:#60c8a8;}</style></defs><rect class="cls-1" x="-456" y="-233" width="3132" height="2949"/><g><path d="M2091.45,852.32c-.41-6.65-3.44-12.86-8.43-17.27l-38.93-34.4c5.19-6.18,7.79-13.96,7.29-22.04-.52-8.36-4.26-16.01-10.53-21.55l-265.48-234.61c-12.95-11.42-32.8-10.2-44.23,2.74l-723.22,818.38-312.72-276.36c-6.28-5.55-14.37-8.32-22.69-7.8-8.36,.52-16.01,4.26-21.54,10.54l-234.61,265.47c-5.46,6.18-8.31,14.45-7.8,22.68,.52,8.35,4.25,16.01,10.53,21.56l44.34,39.18c-1.77,3.78-2.6,7.97-2.34,12.21,.41,6.65,3.44,12.86,8.43,17.27l600.63,530.78c4.62,4.08,10.54,6.29,16.62,6.29,1.39,0,2.79-.12,4.18-.35,1.86-.32,3.68-.84,5.39-1.55,4.56-1.3,8.72-3.88,11.93-7.52l976.93-1105.48c4.41-4.99,6.66-11.52,6.25-18.17ZM484.08,1353.44l193.09-218.51,312.72,276.36c12.95,11.43,32.78,10.2,44.23-2.74l723.22-818.38,218.5,193.1-937.07,1060.37-554.7-490.2Z"/><path class="cls-2" d="M1034.13,1408.47c-11.45,12.94-31.28,14.17-44.23,2.74l-312.72-276.36-193.09,218.51,554.7,490.2L1975.85,783.18l-218.5-193.1-723.22,818.38Z"/></g></svg>