<?xml version="1.0" encoding="UTF-8"?><svg id="Layer_1" xmlns="http://www.w3.org/2000/svg" viewBox="0 0 2500 2500"><path d="M4833.93-1617.75c-.6-9.73-5.03-18.81-12.34-25.26l-56.95-50.33c7.59-9.03,11.39-20.42,10.66-32.25-.76-12.23-6.23-23.42-15.4-31.53l-388.36-343.2c-18.95-16.71-47.98-14.93-64.7,4.01L3248.86-899.12l-457.47-404.28c-9.19-8.12-21.02-12.17-33.19-11.41-12.23,.76-23.42,6.23-31.51,15.41l-343.2,388.35c-7.99,9.05-12.15,21.14-11.4,33.18,.75,12.22,6.22,23.42,15.4,31.54l64.86,57.32c-2.59,5.52-3.81,11.65-3.42,17.86,.6,9.73,5.03,18.81,12.34,25.26L3339.9,30.57c6.76,5.97,15.42,9.2,24.31,9.2,2.04,0,4.07-.17,6.11-.51,2.73-.47,5.38-1.23,7.89-2.27,6.67-1.9,12.75-5.68,17.46-11l1429.12-1617.17c6.46-7.29,9.74-16.85,9.14-26.57ZM2482.56-884.68l282.47-319.65,457.47,404.28c18.94,16.72,47.96,14.92,64.7-4.01l1057.98-1197.18,319.64,282.47L3294.02-167.59l-811.46-717.1Z"/><path d="M2310.75,1995.56l-596.2-734.97,554.95-684.12c20.38-24.96,16.64-61.86-8.46-82.35l-67.26-54.56c.4-17.53-6.95-35.04-21.51-46.77L1730.36,34.32l-19.12-15.32-48.16,5.18-475.74,586.48L851.97,197.21l-15.58-18.74-6.73-.66-66.01-81.38c-9.66-12.14-24.05-20.05-39.49-21.71l-24.42-2.4L239.17,445.91c-12.02,9.7-19.85,24.07-21.44,39.44l-2.31,24.33,526.93,649.58L189.96,1840.22c-9.82,11.91-14.58,27.55-13.07,42.92l2.64,24.49,85.93,69.71c-.06,2.49-.03,4.98,.23,7.46l2.76,24.28,460.47,373.52c12.03,9.82,27.78,14.49,43.2,12.84l24.16-2.82,473.27-583.43,418.92,516.43c5.2,6.54,11.82,11.8,19.19,15.57l70.02,86.32c11.56,14.16,28.42,21.49,45.39,21.49,12.96,0,25.97-4.28,36.72-13.05l442.19-358.69c24.66-20.13,28.6-56.78,8.77-81.69Zm-1081.36-419.04c-11.15-13.69-27.67-21.55-45.33-21.55l-28.08,.28-487.23,600.64-353.61-286.85,545.94-673.01c17.25-21.31,17.25-52.25-.03-73.6L355.95,499.76,709.56,212.92l429.17,529.07c11.15,13.69,27.67,21.55,45.33,21.55l28.08-.28L1701.74,159.68l353.62,286.85-548.32,675.95c-17.25,21.31-17.25,52.25,.03,73.6l589.08,726.2-353.61,286.84-513.15-632.6Z"/></svg>