<?xml version="1.0" encoding="UTF-8"?><svg id="Layer_1" xmlns="http://www.w3.org/2000/svg" viewBox="0 0 2500 2500"><path d="M2249.2,1967.37l-561.6-692.32,522.75-644.42c19.19-23.51,15.68-58.27-7.97-77.57l-63.36-51.39c.38-16.51-6.55-33.01-20.26-44.06L1702.49,119.93l-18.01-14.43-45.36,4.88-448.13,552.45-315.92-389.46-14.68-17.65-6.34-.62-62.18-76.66c-9.1-11.44-22.66-18.89-37.19-20.45l-23-2.26L297.82,507.64c-11.33,9.13-18.69,22.67-20.2,37.15l-2.18,22.92,496.35,611.89L251.47,1821.04c-9.25,11.22-13.74,25.95-12.31,40.43l2.49,23.07,80.95,65.66c-.06,2.34-.03,4.69,.22,7.03l2.6,22.87,433.75,351.85c11.33,9.25,26.17,13.65,40.69,12.09l22.76-2.65,445.81-549.58,394.62,486.47c4.9,6.16,11.13,11.12,18.08,14.67l65.96,81.31c10.89,13.34,26.77,20.24,42.75,20.24,12.21,0,24.46-4.03,34.59-12.3l416.53-337.88c23.23-18.96,26.94-53.48,8.26-76.95Zm-1018.61-394.72c-10.5-12.9-26.07-20.3-42.7-20.3l-26.45,.27-458.96,565.79-333.09-270.2,514.26-633.96c16.25-20.07,16.25-49.21-.03-69.33L407.82,558.37l333.09-270.2,404.27,498.37c10.5,12.9,26.07,20.3,42.7,20.3l26.45-.27L1675.53,238.02l333.1,270.2-516.5,636.73c-16.25,20.07-16.25,49.21,.03,69.33l554.9,684.06-333.09,270.2-483.38-595.9Z"/></svg>